<?xml version="1.0" encoding="UTF-8"?>
<svg width="35px" height="35px" viewBox="0 0 35 35" version="1.1" xmlns="http://www.w3.org/2000/svg" xmlns:xlink="http://www.w3.org/1999/xlink">
    <!-- Generator: Sketch 52.5 (67469) - http://www.bohemiancoding.com/sketch -->
    <title>Staff tracker/Icon/Blue Menu dot</title>
    <desc>Created with Sketch.</desc>
    <g id="Staff-tracker/Icon/Blue-Menu-dot" stroke="none" stroke-width="1" fill="none" fill-rule="evenodd">
        <path d="M10.8,19.6 C9.80588745,19.6 9,18.7941125 9,17.8 C9,16.8058875 9.80588745,16 10.8,16 C11.7941125,16 12.6,16.8058875 12.6,17.8 C12.6,18.7941125 11.7941125,19.6 10.8,19.6 Z M18,19.6 C17.0058875,19.6 16.2,18.7941125 16.2,17.8 C16.2,16.8058875 17.0058875,16 18,16 C18.9941125,16 19.8,16.8058875 19.8,17.8 C19.8,18.7941125 18.9941125,19.6 18,19.6 Z M25.2,19.6 C24.2058875,19.6 23.4,18.7941125 23.4,17.8 C23.4,16.8058875 24.2058875,16 25.2,16 C26.1941125,16 27,16.8058875 27,17.8 C27,18.7941125 26.1941125,19.6 25.2,19.6 Z" id="🎨-Icon-color" fill="#2E5BFF"></path>
    </g>
</svg>