<?xml version="1.0" encoding="UTF-8"?>
<svg width="24px" height="24px" viewBox="0 0 24 24" version="1.1" xmlns="http://www.w3.org/2000/svg" xmlns:xlink="http://www.w3.org/1999/xlink">
    <!-- Generator: Sketch 52.5 (67469) - http://www.bohemiancoding.com/sketch -->
    <title>Staff tracker / Icons / Colored Icons / CI Critical 24x24</title>
    <desc>Created with Sketch.</desc>
    <g id="Staff-tracker-/-Icons-/-Colored-Icons-/-CI-Critical-24x24" stroke="none" stroke-width="1" fill="none" fill-rule="evenodd">
        <path d="M12,14.6086957 C10.053913,14.6086957 8.20069565,15.4330435 6.91513043,16.8693913 C6.72313043,17.0843478 6.7413913,17.4135652 6.95634783,17.606087 C7.056,17.6953043 7.18017391,17.7391304 7.30434783,17.7391304 C7.44782609,17.7391304 7.59026087,17.6806957 7.69356522,17.5653913 C8.78086957,16.3492174 10.3502609,15.6521739 12,15.6521739 C13.6450435,15.6521739 15.2154783,16.3497391 16.3074783,17.565913 C16.5,17.7808696 16.8302609,17.7975652 17.0441739,17.6055652 C17.2586087,17.4130435 17.2763478,17.0833043 17.0838261,16.8688696 C15.7935652,15.4325217 13.9413913,14.6086957 12,14.6086957 Z" id="Path" stroke="#D63649" fill="#007AFF"></path>
        <circle id="Oval" stroke="#D63649" stroke-width="2" fill-rule="nonzero" cx="12" cy="12" r="11"></circle>
        <path d="M14.0874783,7.30434783 C14.1657391,7.30434783 14.2455652,7.2866087 14.3201739,7.24956522 L16.4071304,6.20608696 C16.6648696,6.07721739 16.7692174,5.76365217 16.6403478,5.50591304 C16.5109565,5.24817391 16.1973913,5.14330435 15.9401739,5.27269565 L13.8532174,6.31617391 C13.5954783,6.44504348 13.4911304,6.7586087 13.62,7.01634783 C13.7118261,7.19895652 13.896,7.30434783 14.0874783,7.30434783 Z" id="Path" stroke="#D63649" fill="#007AFF"></path>
        <circle id="Oval" stroke="#D63649" fill-rule="nonzero" cx="8.5" cy="10.5" r="1"></circle>
        <circle id="Oval-Copy" stroke="#D63649" fill-rule="nonzero" cx="15.5" cy="10.5" r="1"></circle>
        <path d="M7.59286957,6.20608696 L9.67982609,7.24956522 C9.75443478,7.2866087 9.83426087,7.30434783 9.91252174,7.30434783 C10.104,7.30434783 10.2881739,7.19895652 10.38,7.01582609 C10.5088696,6.75808696 10.4045217,6.44452174 10.1467826,6.31565217 L8.05982609,5.27217391 C7.80104348,5.14278261 7.48852174,5.24817391 7.35965217,5.5053913 C7.23026087,5.76365217 7.33513043,6.07669565 7.59286957,6.20608696 Z" id="Path" stroke="#D63649" fill="#007AFF"></path>
    </g>
</svg>