<?xml version="1.0" encoding="UTF-8"?>
<svg width="114px" height="130px" viewBox="0 0 114 130" version="1.1" xmlns="http://www.w3.org/2000/svg" xmlns:xlink="http://www.w3.org/1999/xlink">
    <!-- Generator: Sketch 52.5 (67469) - http://www.bohemiancoding.com/sketch -->
    <title>Docs Icon</title>
    <desc>Created with Sketch.</desc>
    <g id="My-Symbol" stroke="none" stroke-width="1" fill="none" fill-rule="evenodd">
        <g id="Staff-tracker/Body-state-null" transform="translate(-356.000000, -200.000000)">
            <g id="Docs-Icon" transform="translate(356.000000, 200.000000)">
                <path d="M70.7105533,67.51914 L68.0758867,65.9725733 L67.2265533,65.4738067 L66.84002,66.3799067 L66.5288867,67.1092067 C65.29302,70.01124 62.8355867,71.8139067 60.11642,71.8139067 C57.3963867,71.8139067 54.9393867,70.01124 53.7039533,67.10964 L53.39282,66.38034 L53.00672,65.4733733 L52.1569533,65.9725733 L49.5222867,67.51914 L48.86492,67.90524 L49.1634867,68.6063733 L49.4741867,69.3356733 C51.4887533,74.0663733 55.56642,77.0056733 60.11642,77.0056733 C64.6659867,77.0056733 68.7436533,74.0663733 70.75822,69.33524 L71.0693533,68.6063733 L71.3687867,67.90524 L70.7105533,67.51914 Z M41.3881867,65.9725733 L40.53842,65.4738067 L40.1518867,66.3799067 L39.8411867,67.1092067 C38.6048867,70.01124 36.1478867,71.8139067 33.4282867,71.8139067 C30.7086867,71.8139067 28.2516867,70.01124 27.01582,67.10964 L26.7046867,66.38034 L26.31902,65.4733733 L25.46882,65.9725733 L22.8341533,67.51914 L22.1767867,67.90524 L22.4753533,68.6063733 L22.7860533,69.3356733 C24.80062,74.0663733 28.8782867,77.0056733 33.4282867,77.0056733 C37.9778533,77.0056733 42.05552,74.0663733 44.0700867,69.33524 L44.38122,68.6063733 L44.6806533,67.90524 L44.0228533,67.51914 L41.3881867,65.9725733 Z" id="Fill-1" fill="#BFC5D2"></path>
                <path d="M47.2060333,92.0881433 C44.9267,92.0881433 43.0798333,93.9358767 43.0798333,96.2143433 C43.0798333,98.4932433 44.9267,100.340543 47.2060333,100.340543 C49.4845,100.340543 51.3318,98.4932433 51.3318,96.2143433 C51.3318,93.9358767 49.4845,92.0881433 47.2060333,92.0881433" id="Fill-3" fill="#BFC5D2"></path>
                <polygon id="Fill-5" fill="#BFC5D2" points="113.208117 43.2399933 113.208117 46.1558933 101.54495 46.1558933 101.54495 43.8717933 108.202683 35.99856 101.71525 35.99856 101.71525 33.08266 112.990583 33.08266 112.990583 35.36676 106.332417 43.2399933"></polygon>
                <polygon id="Fill-8" fill="#BFC5D2" points="107.374193 17.1898133 107.37636 22.12418 87.6380267 22.1324133 87.6362933 18.26708 98.89906 4.93818 87.91926 4.94251333 87.9170933 0.00771333333 106.99936 0.000346666667 107.001093 3.86524667 95.7378933 17.19458"></polygon>
                <g id="Group-12" transform="translate(0.000000, 18.117667)" fill="#EEF3F5">
                    <path d="M66.28752,10.0967533 C65.7904867,9.59928667 64.9385533,9.14342 63.73562,8.72828667 L63.73562,32.1308867 L87.1390867,32.1308867 C86.7230867,30.9283867 86.26722,30.07602 85.76932,29.5789867 L66.28752,10.0967533 Z M87.6365533,103.833253 L87.6365533,40.0972867 L61.7444533,40.0972867 C60.0843533,40.0972867 58.6725533,39.5174867 57.5120867,38.3552867 C56.34902,37.1939533 55.7683533,35.7825867 55.7683533,34.1224867 L55.7683533,8.22995333 L7.96735333,8.22995333 L7.96735333,103.833253 L87.6365533,103.833253 Z M91.3714533,23.9148867 C92.5314867,25.0766533 93.52772,26.65312 94.3579867,28.64472 C95.18782,30.63632 95.6029533,32.4632533 95.6029533,34.1224867 L95.6029533,105.824853 C95.6029533,107.483653 95.0218533,108.89502 93.8609533,110.05722 C92.69832,111.21812 91.28652,111.800087 89.6281533,111.800087 L5.97575333,111.800087 C4.31565333,111.800087 2.90385333,111.21812 1.74382,110.05722 C0.580753333,108.89502 -0.000346666667,107.483653 -0.000346666667,105.824853 L-0.000346666667,6.23835333 C-0.000346666667,4.57912 0.580753333,3.16862 1.74382,2.00555333 C2.90385333,0.845086667 4.31565333,0.263553333 5.97575333,0.263553333 L61.7444533,0.263553333 C63.4036867,0.263553333 65.2301867,0.67782 67.22092,1.50765333 C69.2133867,2.33878667 70.7898533,3.33415333 71.95162,4.49548667 L91.3714533,23.9148867 Z" id="Fill-10"></path>
                </g>
            </g>
        </g>
    </g>
</svg>