<svg width="136" height="24" viewBox="0 0 136 24" fill="none" xmlns="http://www.w3.org/2000/svg">
<path d="M32.997 19.19C32.047 19.19 31.249 19.0507 30.603 18.772C29.957 18.4807 29.4757 18.145 29.159 17.765C28.855 17.3723 28.703 17.0367 28.703 16.758C28.703 16.6313 28.7473 16.53 28.836 16.454C28.9247 16.378 29.026 16.34 29.14 16.34H30.641C30.755 16.34 30.85 16.3843 30.926 16.473C30.9767 16.511 31.1097 16.625 31.325 16.815C31.5403 17.0177 31.7937 17.176 32.085 17.29C32.3763 17.404 32.6993 17.461 33.054 17.461C33.5607 17.461 33.9787 17.3597 34.308 17.157C34.6373 16.9543 34.802 16.6757 34.802 16.321C34.802 16.055 34.726 15.8397 34.574 15.675C34.4347 15.5103 34.175 15.3647 33.795 15.238C33.415 15.0987 32.8513 14.953 32.104 14.801C31.0273 14.573 30.2293 14.2247 29.71 13.756C29.2033 13.2873 28.95 12.6667 28.95 11.894C28.95 11.3873 29.102 10.9123 29.406 10.469C29.71 10.013 30.1597 9.64567 30.755 9.367C31.363 9.07567 32.085 8.93 32.921 8.93C33.7697 8.93 34.5043 9.06933 35.125 9.348C35.7457 9.614 36.2143 9.937 36.531 10.317C36.8603 10.6843 37.025 11.0137 37.025 11.305C37.025 11.419 36.9807 11.5203 36.892 11.609C36.816 11.685 36.721 11.723 36.607 11.723H35.201C35.0997 11.723 34.992 11.6787 34.878 11.59C34.7893 11.5267 34.65 11.4063 34.46 11.229C34.27 11.0517 34.0483 10.9123 33.795 10.811C33.5417 10.7097 33.244 10.659 32.902 10.659C32.4333 10.659 32.066 10.7603 31.8 10.963C31.5467 11.1657 31.42 11.4317 31.42 11.761C31.42 12.0017 31.4833 12.198 31.61 12.35C31.7367 12.502 31.9837 12.6477 32.351 12.787C32.7183 12.9263 33.2693 13.0657 34.004 13.205C35.22 13.4457 36.0877 13.8193 36.607 14.326C37.139 14.8327 37.405 15.4533 37.405 16.188C37.405 17.0747 37.0187 17.7967 36.246 18.354C35.4733 18.9113 34.3903 19.19 32.997 19.19ZM43.3192 19C42.1665 19 41.2989 18.7023 40.7162 18.107C40.1462 17.499 39.8612 16.6123 39.8612 15.447V11.134H38.3602C38.2335 11.134 38.1259 11.0897 38.0372 11.001C37.9485 10.8997 37.9042 10.7857 37.9042 10.659V9.576C37.9042 9.44933 37.9485 9.34167 38.0372 9.253C38.1259 9.16433 38.2335 9.12 38.3602 9.12H39.8612V5.966C39.8612 5.82667 39.9055 5.719 39.9942 5.643C40.0829 5.55433 40.1905 5.51 40.3172 5.51H41.8562C41.9955 5.51 42.1032 5.55433 42.1792 5.643C42.2679 5.719 42.3122 5.82667 42.3122 5.966V9.12H44.6872C44.8265 9.12 44.9342 9.16433 45.0102 9.253C45.0989 9.329 45.1432 9.43667 45.1432 9.576V10.659C45.1432 10.7983 45.0989 10.9123 45.0102 11.001C44.9215 11.0897 44.8139 11.134 44.6872 11.134H42.3122V15.257C42.3122 15.8017 42.4072 16.2133 42.5972 16.492C42.7872 16.7707 43.1039 16.91 43.5472 16.91H44.8582C44.9849 16.91 45.0925 16.9543 45.1812 17.043C45.2699 17.1317 45.3142 17.2393 45.3142 17.366V18.544C45.3142 18.6707 45.2699 18.7783 45.1812 18.867C45.1052 18.9557 44.9975 19 44.8582 19H43.3192ZM49.3937 19.19C48.7477 19.19 48.1524 19.0633 47.6077 18.81C47.0757 18.544 46.6514 18.1893 46.3347 17.746C46.0307 17.3027 45.8787 16.815 45.8787 16.283C45.8787 15.4217 46.227 14.725 46.9237 14.193C47.6204 13.661 48.5767 13.3 49.7927 13.11L52.3957 12.73V12.331C52.3957 11.7737 52.2564 11.3557 51.9777 11.077C51.699 10.7983 51.2494 10.659 50.6287 10.659C50.2107 10.659 49.8687 10.7413 49.6027 10.906C49.3494 11.058 49.1467 11.21 48.9947 11.362C48.8427 11.5267 48.7414 11.6343 48.6907 11.685C48.64 11.837 48.545 11.913 48.4057 11.913H46.9427C46.8287 11.913 46.7274 11.875 46.6387 11.799C46.5627 11.723 46.5247 11.6217 46.5247 11.495C46.5374 11.1783 46.6894 10.8173 46.9807 10.412C47.2847 10.0067 47.747 9.65833 48.3677 9.367C48.9884 9.07567 49.7484 8.93 50.6477 8.93C52.1424 8.93 53.2317 9.26567 53.9157 9.937C54.5997 10.6083 54.9417 11.4887 54.9417 12.578V18.544C54.9417 18.6707 54.8974 18.7783 54.8087 18.867C54.7327 18.9557 54.625 19 54.4857 19H52.9467C52.82 19 52.7124 18.9557 52.6237 18.867C52.535 18.7783 52.4907 18.6707 52.4907 18.544V17.803C52.212 18.2083 51.813 18.544 51.2937 18.81C50.787 19.0633 50.1537 19.19 49.3937 19.19ZM50.0397 17.385C50.7364 17.385 51.3064 17.157 51.7497 16.701C52.193 16.245 52.4147 15.58 52.4147 14.706V14.307L50.5147 14.611C49.78 14.725 49.2227 14.9087 48.8427 15.162C48.4754 15.4153 48.2917 15.7257 48.2917 16.093C48.2917 16.4983 48.4627 16.815 48.8047 17.043C49.1467 17.271 49.5584 17.385 50.0397 17.385ZM58.3314 19C58.2048 19 58.0971 18.9557 58.0084 18.867C57.9198 18.7783 57.8754 18.6707 57.8754 18.544V11.134H56.3364C56.2098 11.134 56.1021 11.0897 56.0134 11.001C55.9248 10.8997 55.8804 10.7857 55.8804 10.659V9.576C55.8804 9.44933 55.9248 9.34167 56.0134 9.253C56.1021 9.16433 56.2098 9.12 56.3364 9.12H57.8754V8.341C57.8754 6.07367 59.1168 4.94 61.5994 4.94H62.8914C63.0308 4.94 63.1384 4.98433 63.2144 5.073C63.3031 5.149 63.3474 5.25667 63.3474 5.396V6.479C63.3474 6.61833 63.3031 6.73233 63.2144 6.821C63.1258 6.90967 63.0181 6.954 62.8914 6.954H61.6754C61.1814 6.954 60.8331 7.07433 60.6304 7.315C60.4404 7.55567 60.3454 7.92933 60.3454 8.436V9.12H64.2404V8.341C64.2404 6.07367 65.4754 4.94 67.9454 4.94H69.2564C69.3958 4.94 69.5034 4.98433 69.5794 5.073C69.6681 5.149 69.7124 5.25667 69.7124 5.396V6.479C69.7124 6.61833 69.6681 6.73233 69.5794 6.821C69.4908 6.90967 69.3831 6.954 69.2564 6.954H68.0404C67.5464 6.954 67.1981 7.08067 66.9954 7.334C66.7928 7.57467 66.6914 7.942 66.6914 8.436V9.12H69.0664C69.2058 9.12 69.3134 9.16433 69.3894 9.253C69.4781 9.329 69.5224 9.43667 69.5224 9.576V10.659C69.5224 10.7983 69.4781 10.9123 69.3894 11.001C69.3008 11.0897 69.1931 11.134 69.0664 11.134H66.6914V18.544C66.6914 18.6707 66.6471 18.7783 66.5584 18.867C66.4824 18.9557 66.3748 19 66.2354 19H64.6964C64.5698 19 64.4621 18.9557 64.3734 18.867C64.2848 18.7783 64.2404 18.6707 64.2404 18.544V11.134H60.3454V18.544C60.3454 18.6707 60.3011 18.7783 60.2124 18.867C60.1238 18.9557 60.0161 19 59.8894 19H58.3314ZM78.1018 19C76.9491 19 76.0815 18.7023 75.4988 18.107C74.9288 17.499 74.6438 16.6123 74.6438 15.447V11.134H73.1428C73.0161 11.134 72.9085 11.0897 72.8198 11.001C72.7311 10.8997 72.6868 10.7857 72.6868 10.659V9.576C72.6868 9.44933 72.7311 9.34167 72.8198 9.253C72.9085 9.16433 73.0161 9.12 73.1428 9.12H74.6438V5.966C74.6438 5.82667 74.6881 5.719 74.7768 5.643C74.8655 5.55433 74.9731 5.51 75.0998 5.51H76.6388C76.7781 5.51 76.8858 5.55433 76.9618 5.643C77.0505 5.719 77.0948 5.82667 77.0948 5.966V9.12H79.4698C79.6091 9.12 79.7168 9.16433 79.7928 9.253C79.8815 9.329 79.9258 9.43667 79.9258 9.576V10.659C79.9258 10.7983 79.8815 10.9123 79.7928 11.001C79.7041 11.0897 79.5965 11.134 79.4698 11.134H77.0948V15.257C77.0948 15.8017 77.1898 16.2133 77.3798 16.492C77.5698 16.7707 77.8865 16.91 78.3298 16.91H79.6408C79.7675 16.91 79.8751 16.9543 79.9638 17.043C80.0525 17.1317 80.0968 17.2393 80.0968 17.366V18.544C80.0968 18.6707 80.0525 18.7783 79.9638 18.867C79.8878 18.9557 79.7801 19 79.6408 19H78.1018ZM81.7633 19C81.6367 19 81.529 18.9557 81.4403 18.867C81.3517 18.7783 81.3073 18.6707 81.3073 18.544V9.595C81.3073 9.46833 81.3517 9.36067 81.4403 9.272C81.529 9.17067 81.6367 9.12 81.7633 9.12H83.3023C83.4417 9.12 83.5557 9.16433 83.6443 9.253C83.733 9.34167 83.7773 9.45567 83.7773 9.595V10.374C84.0813 9.96867 84.4613 9.65833 84.9173 9.443C85.386 9.22767 85.918 9.12 86.5133 9.12H87.2923C87.4317 9.12 87.5393 9.16433 87.6153 9.253C87.704 9.329 87.7483 9.43667 87.7483 9.576V10.944C87.7483 11.0707 87.704 11.1783 87.6153 11.267C87.5393 11.3557 87.4317 11.4 87.2923 11.4H85.8103C85.215 11.4 84.7463 11.571 84.4043 11.913C84.0623 12.255 83.8913 12.7237 83.8913 13.319V18.544C83.8913 18.6707 83.847 18.7783 83.7583 18.867C83.6697 18.9557 83.5557 19 83.4163 19H81.7633ZM91.4757 19.19C90.8297 19.19 90.2344 19.0633 89.6897 18.81C89.1577 18.544 88.7334 18.1893 88.4167 17.746C88.1127 17.3027 87.9607 16.815 87.9607 16.283C87.9607 15.4217 88.3091 14.725 89.0057 14.193C89.7024 13.661 90.6587 13.3 91.8747 13.11L94.4777 12.73V12.331C94.4777 11.7737 94.3384 11.3557 94.0597 11.077C93.7811 10.7983 93.3314 10.659 92.7107 10.659C92.2927 10.659 91.9507 10.7413 91.6847 10.906C91.4314 11.058 91.2287 11.21 91.0767 11.362C90.9247 11.5267 90.8234 11.6343 90.7727 11.685C90.7221 11.837 90.6271 11.913 90.4877 11.913H89.0247C88.9107 11.913 88.8094 11.875 88.7207 11.799C88.6447 11.723 88.6067 11.6217 88.6067 11.495C88.6194 11.1783 88.7714 10.8173 89.0627 10.412C89.3667 10.0067 89.8291 9.65833 90.4497 9.367C91.0704 9.07567 91.8304 8.93 92.7297 8.93C94.2244 8.93 95.3137 9.26567 95.9977 9.937C96.6817 10.6083 97.0237 11.4887 97.0237 12.578V18.544C97.0237 18.6707 96.9794 18.7783 96.8907 18.867C96.8147 18.9557 96.7071 19 96.5677 19H95.0287C94.9021 19 94.7944 18.9557 94.7057 18.867C94.6171 18.7783 94.5727 18.6707 94.5727 18.544V17.803C94.2941 18.2083 93.8951 18.544 93.3757 18.81C92.8691 19.0633 92.2357 19.19 91.4757 19.19ZM92.1217 17.385C92.8184 17.385 93.3884 17.157 93.8317 16.701C94.2751 16.245 94.4967 15.58 94.4967 14.706V14.307L92.5967 14.611C91.8621 14.725 91.3047 14.9087 90.9247 15.162C90.5574 15.4153 90.3737 15.7257 90.3737 16.093C90.3737 16.4983 90.5447 16.815 90.8867 17.043C91.2287 17.271 91.6404 17.385 92.1217 17.385ZM103.261 19.19C101.868 19.19 100.753 18.8037 99.9172 18.031C99.0939 17.2583 98.6569 16.188 98.6062 14.82L98.5872 14.06L98.6062 13.3C98.6569 11.932 99.0939 10.8617 99.9172 10.089C100.753 9.31633 101.868 8.93 103.261 8.93C104.249 8.93 105.085 9.10733 105.769 9.462C106.466 9.81667 106.979 10.2537 107.308 10.773C107.65 11.2797 107.834 11.761 107.859 12.217C107.872 12.3437 107.828 12.4513 107.726 12.54C107.638 12.6287 107.53 12.673 107.403 12.673H105.731C105.605 12.673 105.503 12.6477 105.427 12.597C105.364 12.5337 105.301 12.4323 105.237 12.293C105.047 11.799 104.794 11.4443 104.477 11.229C104.173 11.0137 103.781 10.906 103.299 10.906C102.653 10.906 102.147 11.115 101.779 11.533C101.412 11.9383 101.216 12.559 101.19 13.395L101.171 14.098L101.19 14.725C101.241 16.3843 101.944 17.214 103.299 17.214C103.793 17.214 104.192 17.1063 104.496 16.891C104.8 16.6757 105.047 16.321 105.237 15.827C105.301 15.6877 105.364 15.5927 105.427 15.542C105.503 15.4787 105.605 15.447 105.731 15.447H107.403C107.53 15.447 107.638 15.4913 107.726 15.58C107.828 15.6687 107.872 15.7763 107.859 15.903C107.834 16.3463 107.657 16.8213 107.327 17.328C106.998 17.8347 106.491 18.2717 105.807 18.639C105.123 19.0063 104.275 19.19 103.261 19.19ZM109.841 19C109.714 19 109.606 18.9557 109.518 18.867C109.429 18.7783 109.385 18.6707 109.385 18.544V5.966C109.385 5.82667 109.429 5.719 109.518 5.643C109.606 5.55433 109.714 5.51 109.841 5.51H111.38C111.519 5.51 111.627 5.55433 111.703 5.643C111.791 5.719 111.836 5.82667 111.836 5.966V12.464L115.028 9.443C115.066 9.41767 115.129 9.367 115.218 9.291C115.294 9.22767 115.37 9.18333 115.446 9.158C115.522 9.13267 115.617 9.12 115.731 9.12H117.498C117.624 9.12 117.726 9.158 117.802 9.234C117.878 9.31 117.916 9.41133 117.916 9.538C117.916 9.652 117.852 9.766 117.726 9.88L113.812 13.547L118.201 18.259C118.327 18.3857 118.391 18.4933 118.391 18.582C118.391 18.7087 118.346 18.81 118.258 18.886C118.182 18.962 118.087 19 117.973 19H116.168C115.99 19 115.857 18.981 115.769 18.943C115.693 18.8923 115.591 18.8037 115.465 18.677L111.836 14.858V18.544C111.836 18.6707 111.791 18.7783 111.703 18.867C111.627 18.9557 111.519 19 111.38 19H109.841ZM123.129 19.19C121.723 19.19 120.602 18.7847 119.766 17.974C118.943 17.1507 118.506 15.998 118.455 14.516L118.436 14.041L118.455 13.566C118.518 12.122 118.962 10.9883 119.785 10.165C120.621 9.34167 121.736 8.93 123.129 8.93C124.624 8.93 125.776 9.386 126.587 10.298C127.41 11.21 127.822 12.426 127.822 13.946V14.345C127.822 14.4717 127.778 14.5793 127.689 14.668C127.6 14.7567 127.486 14.801 127.347 14.801H121.039V14.953C121.064 15.6497 121.254 16.2387 121.609 16.72C121.976 17.1887 122.477 17.423 123.11 17.423C123.857 17.423 124.459 17.1317 124.915 16.549C125.029 16.4097 125.118 16.321 125.181 16.283C125.257 16.245 125.365 16.226 125.504 16.226H127.138C127.252 16.226 127.347 16.264 127.423 16.34C127.512 16.4033 127.556 16.4857 127.556 16.587C127.556 16.891 127.372 17.252 127.005 17.67C126.65 18.0753 126.137 18.43 125.466 18.734C124.795 19.038 124.016 19.19 123.129 19.19ZM125.238 13.205V13.148C125.238 12.4007 125.048 11.799 124.668 11.343C124.301 10.887 123.788 10.659 123.129 10.659C122.47 10.659 121.957 10.887 121.59 11.343C121.223 11.799 121.039 12.4007 121.039 13.148V13.205H125.238ZM129.82 19C129.693 19 129.586 18.9557 129.497 18.867C129.408 18.7783 129.364 18.6707 129.364 18.544V9.595C129.364 9.46833 129.408 9.36067 129.497 9.272C129.586 9.17067 129.693 9.12 129.82 9.12H131.359C131.498 9.12 131.612 9.16433 131.701 9.253C131.79 9.34167 131.834 9.45567 131.834 9.595V10.374C132.138 9.96867 132.518 9.65833 132.974 9.443C133.443 9.22767 133.975 9.12 134.57 9.12H135.349C135.488 9.12 135.596 9.16433 135.672 9.253C135.761 9.329 135.805 9.43667 135.805 9.576V10.944C135.805 11.0707 135.761 11.1783 135.672 11.267C135.596 11.3557 135.488 11.4 135.349 11.4H133.867C133.272 11.4 132.803 11.571 132.461 11.913C132.119 12.255 131.948 12.7237 131.948 13.319V18.544C131.948 18.6707 131.904 18.7783 131.815 18.867C131.726 18.9557 131.612 19 131.473 19H129.82Z" fill="#2E384D"/>
<path fill-rule="evenodd" clip-rule="evenodd" d="M11.5 18C15.6421 18 19 14.6421 19 10.5C19 6.35786 15.6421 3 11.5 3C7.35786 3 4 6.35786 4 10.5C4 14.6421 7.35786 18 11.5 18Z" stroke="#2CC2A5" stroke-width="2" stroke-linecap="round" stroke-linejoin="round"/>
<path d="M22 21L16.8 15.8" stroke="#2CC2A5" stroke-width="2" stroke-linecap="round" stroke-linejoin="round"/>
<path d="M8 14V13.3333C8 12.597 8.7835 12 9.75 12H13.25C14.2165 12 15 12.597 15 13.3333V14" stroke="#2E5BFF" stroke-linecap="round" stroke-linejoin="round"/>
<path fill-rule="evenodd" clip-rule="evenodd" d="M11.5 10C10.6716 10 10 9.32843 10 8.5C10 7.67157 10.6716 7 11.5 7C12.3284 7 13 7.67157 13 8.5C13 9.32843 12.3284 10 11.5 10Z" stroke="#2E5BFF" stroke-linecap="round" stroke-linejoin="round"/>
</svg>
